<svg width="1080" height="2160" viewBox="0 0 1080 2160" fill="none" xmlns="http://www.w3.org/2000/svg">
<rect width="1080" height="2160" fill="#212121"/>
<path d="M392.414 955.141H427.359V1005.13C421.922 1006.87 416.391 1008.18 410.766 1009.07C405.141 1009.96 398.625 1010.41 391.219 1010.41C375.656 1010.41 363.539 1005.79 354.867 996.555C346.195 987.273 341.859 974.289 341.859 957.602C341.859 946.914 343.992 937.562 348.258 929.547C352.57 921.484 358.758 915.344 366.82 911.125C374.883 906.859 384.328 904.727 395.156 904.727C406.125 904.727 416.344 906.742 425.812 910.773L421.172 921.32C411.891 917.383 402.961 915.414 394.383 915.414C381.867 915.414 372.094 919.141 365.062 926.594C358.031 934.047 354.516 944.383 354.516 957.602C354.516 971.477 357.891 982 364.641 989.172C371.438 996.344 381.398 999.93 394.523 999.93C401.648 999.93 408.609 999.109 415.406 997.469V965.828H392.414V955.141ZM477.82 1009L476.273 1001.69H475.898C473.336 1004.91 470.773 1007.09 468.211 1008.25C465.68 1009.38 462.508 1009.94 458.695 1009.94C453.602 1009.94 449.602 1008.62 446.695 1006C443.82 1003.38 442.383 999.641 442.383 994.797C442.383 984.422 450.68 978.984 467.273 978.484L475.992 978.203V975.016C475.992 970.984 475.117 968.016 473.367 966.109C471.648 964.172 468.883 963.203 465.07 963.203C460.789 963.203 455.945 964.516 450.539 967.141L448.148 961.188C450.68 959.812 453.445 958.734 456.445 957.953C459.477 957.172 462.508 956.781 465.539 956.781C471.664 956.781 476.195 958.141 479.133 960.859C482.102 963.578 483.586 967.938 483.586 973.938V1009H477.82ZM460.242 1003.52C465.086 1003.52 468.883 1002.19 471.633 999.531C474.414 996.875 475.805 993.156 475.805 988.375V983.734L468.023 984.062C461.836 984.281 457.367 985.25 454.617 986.969C451.898 988.656 450.539 991.297 450.539 994.891C450.539 997.703 451.383 999.844 453.07 1001.31C454.789 1002.78 457.18 1003.52 460.242 1003.52ZM565.148 1009V975.578C565.148 971.484 564.273 968.422 562.523 966.391C560.773 964.328 558.055 963.297 554.367 963.297C549.523 963.297 545.945 964.688 543.633 967.469C541.32 970.25 540.164 974.531 540.164 980.312V1009H532.383V975.578C532.383 971.484 531.508 968.422 529.758 966.391C528.008 964.328 525.273 963.297 521.555 963.297C516.68 963.297 513.102 964.766 510.82 967.703C508.57 970.609 507.445 975.391 507.445 982.047V1009H499.664V957.625H505.992L507.258 964.656H507.633C509.102 962.156 511.164 960.203 513.82 958.797C516.508 957.391 519.508 956.688 522.82 956.688C530.852 956.688 536.102 959.594 538.57 965.406H538.945C540.477 962.719 542.695 960.594 545.602 959.031C548.508 957.469 551.82 956.688 555.539 956.688C561.352 956.688 565.695 958.188 568.57 961.188C571.477 964.156 572.93 968.922 572.93 975.484V1009H565.148Z" fill="white"/>
<path d="M682.125 1009H611.461V999.648L666.023 916.961H613.148V906.203H680.578V915.555L626.016 998.172H682.125V1009ZM703.523 957.625V990.953C703.523 995.141 704.477 998.266 706.383 1000.33C708.289 1002.39 711.273 1003.42 715.336 1003.42C720.711 1003.42 724.633 1001.95 727.102 999.016C729.602 996.078 730.852 991.281 730.852 984.625V957.625H738.633V1009H732.211L731.086 1002.11H730.664C729.07 1004.64 726.852 1006.58 724.008 1007.92C721.195 1009.27 717.977 1009.94 714.352 1009.94C708.102 1009.94 703.414 1008.45 700.289 1005.48C697.195 1002.52 695.648 997.766 695.648 991.234V957.625H703.523Z" fill="#FF4081"/>
<ellipse cx="875.5" cy="818.5" rx="74.5" ry="77.5" fill="#FF4081" fill-opacity="0.28"/>
<path d="M928 818C928 846.719 904.495 870 875.5 870C846.505 870 823 846.719 823 818C823 789.281 846.505 766 875.5 766C904.495 766 928 789.281 928 818Z" fill="#FF4081"/>
<ellipse cx="747" cy="696.5" rx="45" ry="44.5" fill="#FF4081" fill-opacity="0.28"/>
<path d="M779 696C779 712.569 764.673 726 747 726C729.327 726 715 712.569 715 696C715 679.431 729.327 666 747 666C764.673 666 779 679.431 779 696Z" fill="#FF4081"/>
<ellipse cx="212.5" cy="1191.5" rx="120.5" ry="117.5" fill="#FF4081" fill-opacity="0.28"/>
<path d="M298 1191C298 1234.63 259.944 1270 213 1270C166.056 1270 128 1234.63 128 1191C128 1147.37 166.056 1112 213 1112C259.944 1112 298 1147.37 298 1191Z" fill="#FF4081"/>
<path d="M927.19 1720.24C942.077 1736.2 958.685 1738.74 977.015 1727.88C969.323 1715.28 967.492 1701.58 969.541 1687.14H933.834C935.416 1699.83 934.99 1711.64 927.19 1720.24Z" fill="#FFB8B8"/>
<path d="M986.149 2137.78L1005.25 2127.6L1013.55 2019.82V1962.96L969.541 1962.11L981.997 2018.97L986.149 2137.78Z" fill="#FFB8B8"/>
<path d="M930.785 2137.78L911.686 2127.6L903.383 2019.82V1962.96L947.394 1962.11L934.938 2018.97L930.785 2137.78Z" fill="#FFB8B8"/>
<path d="M901.448 1974.84L947.951 1970.59L955.424 1927.31L964.559 1969.75L1015.21 1966.35C1016.32 1945.73 1013.51 1924.51 1006.91 1902.7L895.635 1900.16L901.448 1974.84Z" fill="#2F2E41"/>
<path d="M853.113 1812.29L797.175 1768.27C796.594 1767.81 795.956 1767.44 795.277 1767.16L787.147 1763.78C780.617 1761.06 768.178 1752.03 774.245 1742.73C779.136 1735.23 797.857 1748.67 800.16 1753.64C800.888 1755.21 802.082 1756.5 803.571 1757.33L814.938 1763.69C815.215 1763.85 815.5 1763.99 815.792 1764.11L859.072 1782.04C860.272 1782.53 861.57 1782.73 862.859 1782.61C864.148 1782.49 865.391 1782.06 866.485 1781.35L874.331 1776.27C875.448 1775.54 876.72 1775.11 878.038 1775C879.355 1774.89 880.679 1775.12 881.894 1775.65C883.109 1776.18 884.179 1777.01 885.011 1778.06C885.843 1779.11 886.412 1780.35 886.669 1781.67L889.262 1795.05C889.635 1796.98 889.33 1798.97 888.399 1800.69C887.469 1802.41 885.974 1803.74 884.179 1804.44L860.975 1813.47C859.675 1813.98 858.269 1814.14 856.893 1813.93C855.517 1813.72 854.215 1813.16 853.113 1812.29Z" fill="#FFB8B8"/>
<path d="M863.504 1780.22C878.991 1775.97 877.365 1798.09 889.181 1808.96L912.413 1790.22L898.957 1723.64C895.346 1724.69 892.025 1726.59 889.256 1729.18C886.487 1731.77 884.346 1734.98 883.001 1738.57L863.504 1780.22Z" fill="#FF4081"/>
<path d="M892.313 1904.4H1009.4C990.451 1852.21 992.296 1798.54 1008.43 1743.84C1008.7 1742.93 1008.65 1741.96 1008.3 1741.08C1007.94 1740.21 1007.29 1739.48 1006.47 1739.04L972.863 1721.09C959.67 1729.86 945.492 1727.17 930.512 1715.15L893.974 1725.33C903.92 1786.38 904.203 1846.18 892.313 1904.4Z" fill="#FF4081"/>
<path d="M921.59 2157.71L872.795 2159.83C870.671 2159.92 868.588 2159.2 866.948 2157.82C865.307 2156.44 864.226 2154.48 863.911 2152.33C863.593 2150.16 864.081 2147.95 865.277 2146.13C866.474 2144.3 868.294 2143 870.38 2142.48L878.656 2140.41L911.185 2121.14C916.004 2126.24 922.641 2130.55 930.753 2134.22L930.848 2147.77C930.866 2150.33 929.911 2152.8 928.184 2154.65C926.457 2156.51 924.093 2157.6 921.59 2157.71Z" fill="#2F2E41"/>
<path d="M1079.52 2160H0.392578V2157.27H1080L1079.52 2160Z" fill="#3F3D56"/>
<path d="M994.939 2156.95L1043.73 2159.07C1045.86 2159.16 1047.94 2158.45 1049.58 2157.06C1051.22 2155.68 1052.3 2153.72 1052.62 2151.58C1052.94 2149.4 1052.45 2147.19 1051.25 2145.37C1050.06 2143.55 1048.24 2142.25 1046.15 2141.72L1037.87 2139.65L1005.34 2120.38C1000.53 2125.48 993.889 2129.79 985.776 2133.47L985.681 2147.01C985.663 2149.57 986.619 2152.04 988.346 2153.89C990.073 2155.75 992.436 2156.85 994.939 2156.95Z" fill="#2F2E41"/>
<path d="M947.951 1702.42C962.627 1702.42 974.524 1690.26 974.524 1675.26C974.524 1660.26 962.627 1648.11 947.951 1648.11C933.275 1648.11 921.377 1660.26 921.377 1675.26C921.377 1690.26 933.275 1702.42 947.951 1702.42Z" fill="#FFB8B8"/>
<path d="M989.471 1895.91L980.692 1913.36C979.918 1914.9 979.47 1916.59 979.38 1918.32C979.29 1920.04 979.559 1921.77 980.169 1923.39C980.779 1925 981.717 1926.47 982.921 1927.69C984.124 1928.9 985.566 1929.85 987.153 1930.46C988.831 1931.1 990.63 1931.35 992.416 1931.19C994.202 1931.03 995.93 1930.46 997.473 1929.53C999.017 1928.6 1000.34 1927.33 1001.34 1925.8C1002.33 1924.28 1002.99 1922.55 1003.25 1920.74L1006.91 1895.06L1020.2 1830.57L1019.37 1798.32H992.793C1001.86 1822.3 997.36 1857.68 989.471 1895.91Z" fill="#FFB8B8"/>
<path d="M988.641 1801.71H1024.35L1019.17 1761.69C1018.46 1756.26 1016.44 1751.1 1013.28 1746.68C1010.13 1742.26 1005.94 1738.71 1001.1 1736.37L988.641 1801.71Z" fill="#FF4081"/>
<path d="M976.202 1660.3C976.733 1656.68 976.51 1652.98 975.547 1649.44C974.585 1645.91 972.905 1642.62 970.616 1639.79C966.083 1634.31 958.483 1629.82 945.875 1631.94C918.367 1636.56 910.435 1659.96 913.13 1665.85C915.825 1671.73 924.086 1685.38 924.086 1685.38C924.086 1685.38 918.023 1671.87 924.603 1669.12C931.183 1666.37 956.647 1655.54 965.535 1660.42C968.051 1661.71 970.187 1663.66 971.726 1666.07C973.265 1668.48 974.152 1671.27 974.296 1674.14L976.202 1660.3Z" fill="#2F2E41"/>
<path d="M420.898 1787.38V1778.36C420.898 1778.36 459.435 1756.2 490.746 1778.36V1786.56L420.898 1787.38Z" fill="#535461"/>
<path d="M771.742 1787.38V1778.36C771.742 1778.36 810.278 1756.2 841.589 1778.36V1786.56L771.742 1787.38Z" fill="#535461"/>
<path d="M536.508 1786.56H498.774C498.774 1786.56 489.14 1775.07 457.026 1775.9C424.912 1776.72 418.489 1786.56 418.489 1786.56C418.489 1786.56 386.777 1808.3 379.551 1835.38C379.551 1835.38 340.613 1954.76 339.81 2048.3C339.007 2141.83 374.333 2154.96 392.798 2157.42C411.264 2159.88 444.18 2156.6 476.294 2073.73L489.943 2025.32C489.943 2025.32 492.351 1996.61 521.254 2014.66C550.156 2032.71 575.847 2004.81 575.847 2004.81H684.231C684.231 2004.81 720.359 2027.78 753.276 2009.73C753.276 2009.73 766.122 1992.5 778.164 2050.76C778.164 2050.76 815.095 2170.55 872.097 2158.24C929.099 2145.93 922.676 2045.83 922.676 2045.83C922.676 2045.83 915.049 1892.81 883.738 1838.66C883.738 1838.66 853.632 1782.46 833.561 1780C833.561 1780 790.207 1771.79 773.347 1779.18L763.713 1787.38L536.508 1786.56Z" fill="#E6E6E6"/>
<path d="M448.997 1938.35C487.573 1938.35 518.845 1906.39 518.845 1866.97C518.845 1827.55 487.573 1795.59 448.997 1795.59C410.422 1795.59 379.15 1827.55 379.15 1866.97C379.15 1906.39 410.422 1938.35 448.997 1938.35Z" fill="#535461"/>
<path d="M813.49 1938.35C852.065 1938.35 883.337 1906.39 883.337 1866.97C883.337 1827.55 852.065 1795.59 813.49 1795.59C774.914 1795.59 743.642 1827.55 743.642 1866.97C743.642 1906.39 774.914 1938.35 813.49 1938.35Z" fill="#535461"/>
<path d="M461.169 1851.05L451.856 1859.47C451.067 1860.18 450.053 1860.57 449.002 1860.57C447.951 1860.57 446.936 1860.18 446.148 1859.47L436.819 1851.05C436.362 1850.64 435.996 1850.14 435.745 1849.57C435.493 1849.01 435.361 1848.39 435.357 1847.77V1824.61C435.36 1823.44 435.816 1822.32 436.625 1821.49C437.435 1820.67 438.533 1820.2 439.677 1820.2H458.343C459.486 1820.2 460.584 1820.66 461.394 1821.49C462.204 1822.31 462.66 1823.43 462.662 1824.6V1847.75C462.657 1848.38 462.521 1849 462.264 1849.57C462.006 1850.14 461.633 1850.64 461.169 1851.05Z" fill="#E6E6E6"/>
<path d="M461.169 1882.88L451.856 1874.47C451.067 1873.76 450.053 1873.37 449.002 1873.37C447.951 1873.37 446.936 1873.76 446.148 1874.47L436.819 1882.89C436.362 1883.3 435.996 1883.8 435.745 1884.37C435.493 1884.93 435.361 1885.55 435.357 1886.17V1909.31C435.355 1910.47 435.808 1911.6 436.615 1912.42C437.422 1913.25 438.517 1913.72 439.661 1913.72H458.343C459.486 1913.72 460.584 1913.26 461.394 1912.44C462.204 1911.61 462.66 1910.49 462.662 1909.32V1886.18C462.657 1885.55 462.521 1884.93 462.264 1884.36C462.006 1883.79 461.633 1883.29 461.169 1882.88Z" fill="#E6E6E6"/>
<path d="M433.431 1879.42L441.668 1869.89C442.362 1869.08 442.745 1868.05 442.745 1866.97C442.745 1865.9 442.362 1864.86 441.668 1864.06L433.431 1854.52C433.028 1854.06 432.534 1853.68 431.981 1853.43C431.427 1853.17 430.827 1853.03 430.219 1853.03H407.579C406.435 1853.03 405.338 1853.5 404.53 1854.33C403.722 1855.15 403.268 1856.27 403.268 1857.44V1876.52C403.265 1877.69 403.718 1878.81 404.525 1879.64C405.332 1880.47 406.427 1880.93 407.571 1880.93H430.227C430.835 1880.93 431.435 1880.79 431.987 1880.53C432.539 1880.27 433.031 1879.89 433.431 1879.42Z" fill="#E6E6E6"/>
<path d="M464.573 1879.42L456.352 1869.88C455.656 1869.08 455.272 1868.04 455.272 1866.97C455.272 1865.89 455.656 1864.85 456.352 1864.05L464.589 1854.51C464.991 1854.05 465.485 1853.67 466.039 1853.42C466.592 1853.16 467.192 1853.02 467.801 1853.02H490.441C491.584 1853.02 492.682 1853.48 493.492 1854.31C494.302 1855.13 494.758 1856.25 494.76 1857.42V1876.51C494.762 1877.68 494.31 1878.8 493.503 1879.63C492.696 1880.46 491.6 1880.92 490.457 1880.93H467.809C467.196 1880.92 466.59 1880.79 466.032 1880.53C465.474 1880.27 464.977 1879.9 464.573 1879.42Z" fill="#E6E6E6"/>
<path d="M543.734 1996.61C571.668 1996.61 594.313 1973.46 594.313 1944.92C594.313 1916.37 571.668 1893.22 543.734 1893.22C515.799 1893.22 493.154 1916.37 493.154 1944.92C493.154 1973.46 515.799 1996.61 543.734 1996.61Z" fill="#535461"/>
<path d="M718.754 1996.61C746.688 1996.61 769.333 1973.46 769.333 1944.92C769.333 1916.37 746.688 1893.22 718.754 1893.22C690.819 1893.22 668.174 1916.37 668.174 1944.92C668.174 1973.46 690.819 1996.61 718.754 1996.61Z" fill="#535461"/>
<path d="M543.733 1979.38C562.356 1979.38 577.453 1963.95 577.453 1944.92C577.453 1925.88 562.356 1910.45 543.733 1910.45C525.11 1910.45 510.014 1925.88 510.014 1944.92C510.014 1963.95 525.11 1979.38 543.733 1979.38Z" fill="#E6E6E6"/>
<path d="M543.734 1968.71C539.129 1968.71 534.627 1967.31 530.799 1964.7C526.97 1962.08 523.986 1958.37 522.223 1954.02C520.461 1949.67 520 1944.89 520.899 1940.27C521.797 1935.66 524.014 1931.42 527.27 1928.09C530.527 1924.76 534.675 1922.5 539.192 1921.58C543.708 1920.66 548.389 1921.13 552.644 1922.93C556.898 1924.73 560.534 1927.78 563.092 1931.7C565.651 1935.61 567.016 1940.21 567.016 1944.92C567.009 1951.22 564.554 1957.27 560.189 1961.73C555.824 1966.19 549.907 1968.7 543.734 1968.71ZM543.734 1922.76C539.446 1922.76 535.256 1924.06 531.691 1926.5C528.126 1928.93 525.348 1932.39 523.707 1936.44C522.066 1940.49 521.637 1944.94 522.473 1949.24C523.31 1953.53 525.374 1957.48 528.406 1960.58C531.437 1963.68 535.3 1965.79 539.505 1966.64C543.71 1967.5 548.068 1967.06 552.029 1965.38C555.99 1963.71 559.376 1960.87 561.757 1957.22C564.139 1953.58 565.411 1949.3 565.411 1944.92C565.404 1939.04 563.118 1933.41 559.054 1929.26C554.991 1925.1 549.481 1922.77 543.734 1922.76Z" fill="#535461"/>
<path d="M718.754 1979.38C737.376 1979.38 752.473 1963.95 752.473 1944.92C752.473 1925.88 737.376 1910.45 718.754 1910.45C700.131 1910.45 685.034 1925.88 685.034 1944.92C685.034 1963.95 700.131 1979.38 718.754 1979.38Z" fill="#E6E6E6"/>
<path d="M718.754 1968.71C714.149 1968.71 709.647 1967.31 705.819 1964.7C701.99 1962.08 699.006 1958.37 697.243 1954.02C695.481 1949.67 695.02 1944.89 695.919 1940.27C696.817 1935.66 699.034 1931.42 702.291 1928.09C705.547 1924.76 709.695 1922.5 714.212 1921.58C718.728 1920.66 723.409 1921.13 727.664 1922.93C731.918 1924.73 735.554 1927.78 738.113 1931.7C740.671 1935.61 742.036 1940.21 742.036 1944.92C742.029 1951.22 739.574 1957.27 735.209 1961.73C730.844 1966.19 724.926 1968.7 718.754 1968.71ZM718.754 1922.76C714.466 1922.76 710.275 1924.06 706.711 1926.5C703.146 1928.93 700.368 1932.39 698.727 1936.44C697.086 1940.49 696.657 1944.94 697.493 1949.24C698.33 1953.53 700.394 1957.48 703.426 1960.58C706.457 1963.68 710.32 1965.79 714.525 1966.64C718.73 1967.5 723.088 1967.06 727.049 1965.38C731.01 1963.71 734.396 1960.87 736.777 1957.22C739.159 1953.58 740.431 1949.3 740.431 1944.92C740.424 1939.04 738.138 1933.41 734.074 1929.26C730.011 1925.1 724.501 1922.77 718.754 1922.76Z" fill="#535461"/>
<path d="M632.849 1965.43C640.83 1965.43 647.3 1958.82 647.3 1950.66C647.3 1942.5 640.83 1935.89 632.849 1935.89C624.868 1935.89 618.398 1942.5 618.398 1950.66C618.398 1958.82 624.868 1965.43 632.849 1965.43Z" fill="#535461"/>
<path d="M610.763 1904.59C612.506 1904.59 613.918 1903.14 613.918 1901.36C613.918 1899.58 612.506 1898.14 610.763 1898.14C609.021 1898.14 607.608 1899.58 607.608 1901.36C607.608 1903.14 609.021 1904.59 610.763 1904.59Z" fill="#535461"/>
<path d="M622.581 1904.59C624.323 1904.59 625.736 1903.14 625.736 1901.36C625.736 1899.58 624.323 1898.14 622.581 1898.14C620.838 1898.14 619.426 1899.58 619.426 1901.36C619.426 1903.14 620.838 1904.59 622.581 1904.59Z" fill="#535461"/>
<path d="M621.007 1919.89C622.75 1919.89 624.162 1918.45 624.162 1916.67C624.162 1914.89 622.75 1913.44 621.007 1913.44C619.265 1913.44 617.852 1914.89 617.852 1916.67C617.852 1918.45 619.265 1919.89 621.007 1919.89Z" fill="#535461"/>
<path d="M632.046 1920.3C633.82 1920.3 635.258 1918.83 635.258 1917.02C635.258 1915.21 633.82 1913.74 632.046 1913.74C630.273 1913.74 628.835 1915.21 628.835 1917.02C628.835 1918.83 630.273 1920.3 632.046 1920.3Z" fill="#535461"/>
<path d="M643.069 1919.89C644.812 1919.89 646.224 1918.45 646.224 1916.67C646.224 1914.89 644.812 1913.44 643.069 1913.44C641.327 1913.44 639.914 1914.89 639.914 1916.67C639.914 1918.45 641.327 1919.89 643.069 1919.89Z" fill="#535461"/>
<path d="M616.279 1912.65C618.021 1912.65 619.434 1911.2 619.434 1909.42C619.434 1907.64 618.021 1906.2 616.279 1906.2C614.536 1906.2 613.124 1907.64 613.124 1909.42C613.124 1911.2 614.536 1912.65 616.279 1912.65Z" fill="#535461"/>
<path d="M626.427 1912.92C628.2 1912.92 629.638 1911.45 629.638 1909.63C629.638 1907.82 628.2 1906.35 626.427 1906.35C624.653 1906.35 623.215 1907.82 623.215 1909.63C623.215 1911.45 624.653 1912.92 626.427 1912.92Z" fill="#535461"/>
<path d="M636.864 1912.92C638.637 1912.92 640.075 1911.45 640.075 1909.63C640.075 1907.82 638.637 1906.35 636.864 1906.35C635.09 1906.35 633.652 1907.82 633.652 1909.63C633.652 1911.45 635.09 1912.92 636.864 1912.92Z" fill="#535461"/>
<path d="M647.798 1912.65C649.541 1912.65 650.953 1911.2 650.953 1909.42C650.953 1907.64 649.541 1906.2 647.798 1906.2C646.056 1906.2 644.643 1907.64 644.643 1909.42C644.643 1911.2 646.056 1912.65 647.798 1912.65Z" fill="#535461"/>
<path d="M632.046 1904.71C633.82 1904.71 635.258 1903.24 635.258 1901.43C635.258 1899.62 633.82 1898.15 632.046 1898.15C630.273 1898.15 628.835 1899.62 628.835 1901.43C628.835 1903.24 630.273 1904.71 632.046 1904.71Z" fill="#535461"/>
<path d="M643.287 1904.71C645.06 1904.71 646.498 1903.24 646.498 1901.43C646.498 1899.62 645.06 1898.15 643.287 1898.15C641.513 1898.15 640.075 1899.62 640.075 1901.43C640.075 1903.24 641.513 1904.71 643.287 1904.71Z" fill="#535461"/>
<path d="M652.527 1904.59C654.27 1904.59 655.682 1903.14 655.682 1901.36C655.682 1899.58 654.27 1898.14 652.527 1898.14C650.785 1898.14 649.372 1899.58 649.372 1901.36C649.372 1903.14 650.785 1904.59 652.527 1904.59Z" fill="#535461"/>
<path d="M512.824 1793.55C511.338 1793.56 509.915 1794.16 508.865 1795.23C507.815 1796.31 507.224 1797.76 507.222 1799.28V1816.51C507.224 1818.03 507.815 1819.48 508.865 1820.56C509.915 1821.63 511.338 1822.23 512.824 1822.23H516.838C518.323 1822.23 519.747 1821.63 520.797 1820.56C521.847 1819.48 522.438 1818.03 522.439 1816.51V1799.28C522.438 1797.76 521.847 1796.31 520.797 1795.23C519.747 1794.16 518.323 1793.56 516.838 1793.55H512.824Z" fill="#535461"/>
<path d="M747.255 1793.55C745.77 1793.56 744.346 1794.16 743.296 1795.23C742.245 1796.31 741.655 1797.76 741.653 1799.28V1816.51C741.655 1818.03 742.245 1819.48 743.296 1820.56C744.346 1821.63 745.77 1822.23 747.255 1822.23H751.269C752.754 1822.23 754.178 1821.63 755.228 1820.56C756.278 1819.48 756.869 1818.03 756.87 1816.51V1799.28C756.869 1797.76 756.278 1796.31 755.228 1795.23C754.178 1794.16 752.754 1793.56 751.269 1793.55H747.255Z" fill="#535461"/>
<path d="M814.293 1843.18C824.934 1843.18 833.561 1834.36 833.561 1823.48C833.561 1812.61 824.934 1803.79 814.293 1803.79C803.651 1803.79 795.024 1812.61 795.024 1823.48C795.024 1834.36 803.651 1843.18 814.293 1843.18Z" fill="#E6E6E6"/>
<path d="M773.347 1885.02C783.989 1885.02 792.616 1876.2 792.616 1865.33C792.616 1854.45 783.989 1845.64 773.347 1845.64C762.706 1845.64 754.079 1854.45 754.079 1865.33C754.079 1876.2 762.706 1885.02 773.347 1885.02Z" fill="#E6E6E6"/>
<path d="M856.844 1882.56C867.485 1882.56 876.112 1873.74 876.112 1862.87C876.112 1851.99 867.485 1843.18 856.844 1843.18C846.202 1843.18 837.575 1851.99 837.575 1862.87C837.575 1873.74 846.202 1882.56 856.844 1882.56Z" fill="#E6E6E6"/>
<path d="M817.504 1926.04C828.145 1926.04 836.772 1917.23 836.772 1906.35C836.772 1895.48 828.145 1886.66 817.504 1886.66C806.862 1886.66 798.235 1895.48 798.235 1906.35C798.235 1917.23 806.862 1926.04 817.504 1926.04Z" fill="#E6E6E6"/>
<path d="M549.152 1782.07C544.847 1782.07 540.719 1783.82 537.675 1786.93C534.63 1790.05 532.918 1794.26 532.913 1798.66V1872.1C532.918 1876.5 534.63 1880.72 537.675 1883.83C540.719 1886.94 544.847 1888.69 549.152 1888.69H714.137C718.442 1888.69 722.57 1886.94 725.614 1883.83C728.659 1880.72 730.371 1876.5 730.376 1872.1V1798.66C730.371 1794.26 728.659 1790.05 725.614 1786.93C722.57 1783.82 718.442 1782.07 714.137 1782.07H549.152Z" fill="#535461"/>
<path d="M827.383 1832.51H801.253L813.868 1810.41L827.383 1832.51ZM804.049 1830.87H824.485L813.915 1813.58L804.049 1830.87Z" fill="#535461"/>
<path d="M784.186 1875.17H762.509V1855.48H784.186V1875.17ZM764.115 1873.53H782.58V1857.12H764.115V1873.53Z" fill="#535461"/>
<path d="M856.843 1875.17C854.462 1875.17 852.133 1874.45 850.153 1873.1C848.173 1871.75 846.629 1869.83 845.717 1867.58C844.806 1865.33 844.568 1862.85 845.032 1860.47C845.497 1858.08 846.644 1855.89 848.328 1854.16C850.012 1852.44 852.158 1851.27 854.494 1850.8C856.83 1850.32 859.251 1850.56 861.452 1851.5C863.652 1852.43 865.533 1854.01 866.856 1856.03C868.18 1858.05 868.886 1860.43 868.886 1862.87C868.883 1866.13 867.613 1869.26 865.355 1871.57C863.097 1873.87 860.036 1875.17 856.843 1875.17ZM856.843 1852.2C854.779 1852.2 852.761 1852.83 851.045 1854C849.329 1855.17 847.991 1856.84 847.201 1858.78C846.411 1860.73 846.204 1862.88 846.607 1864.95C847.01 1867.02 848.004 1868.92 849.463 1870.41C850.923 1871.9 852.783 1872.92 854.807 1873.33C856.832 1873.74 858.93 1873.53 860.838 1872.72C862.745 1871.91 864.375 1870.55 865.521 1868.79C866.668 1867.04 867.28 1864.98 867.28 1862.87C867.277 1860.04 866.177 1857.33 864.22 1855.33C862.263 1853.33 859.611 1852.2 856.843 1852.2Z" fill="#535461"/>
<path d="M808.839 1896.54L807.704 1897.7L825.768 1916.16L826.903 1915L808.839 1896.54Z" fill="#535461"/>
<path d="M826.181 1896.53L807.717 1914.58L808.827 1915.77L827.291 1897.71L826.181 1896.53Z" fill="#535461"/>
<path d="M473.409 167.863L464.671 172.297C454.607 152.479 441.273 134.5 425.231 119.115C346.45 43.3773 220.739 45.8535 145.001 124.635C69.2632 203.417 71.7394 329.127 150.521 404.865C165.515 419.309 182.693 431.298 201.422 440.392L197.148 449.208C167.462 434.794 141.631 413.523 121.791 387.152C101.951 360.781 88.6711 330.068 83.0475 297.551C77.424 265.033 79.6188 231.644 89.4505 200.142C99.2822 168.64 116.469 139.929 139.59 116.383C162.711 92.836 191.103 75.129 222.421 64.7246C253.738 54.3202 287.082 51.517 319.697 56.5468C352.312 61.5765 383.262 74.2947 409.99 93.6506C436.718 113.007 458.456 138.445 473.409 167.863Z" fill="#E6E6E6"/>
<path d="M177.792 350.15C164.94 363.519 157.925 381.446 158.29 399.987C158.655 418.528 166.371 436.165 179.74 449.018C193.109 461.87 211.036 468.885 229.577 468.52C248.118 468.155 265.755 460.439 278.608 447.07L290.645 434.549L189.83 337.628L177.792 350.15Z" fill="#E6E6E6"/>
<path d="M183.075 330.517C180.215 333.499 178.654 337.495 178.735 341.627C178.816 345.759 180.533 349.69 183.509 352.557L275.977 441.452C278.957 444.317 282.954 445.881 287.087 445.8C291.22 445.719 295.152 443.998 298.017 441.018C300.882 438.038 302.446 434.041 302.365 429.908C302.284 425.775 300.564 421.843 297.583 418.978L205.116 330.083C202.133 327.222 198.138 325.661 194.006 325.742C189.874 325.824 185.943 327.541 183.075 330.517Z" fill="#535461"/>
<path d="M460.41 257.962L472.448 245.44C485.3 232.071 492.315 214.144 491.95 195.603C491.585 177.062 483.869 159.425 470.5 146.572C463.881 140.208 456.072 135.211 447.521 131.865C438.97 128.518 429.844 126.889 420.663 127.07C402.122 127.435 384.485 135.151 371.633 148.52L359.595 161.041L460.41 257.962Z" fill="#E6E6E6"/>
<path d="M352.223 154.572C349.362 157.554 347.801 161.55 347.882 165.682C347.964 169.814 349.681 173.745 352.657 176.612L445.124 265.507C448.105 268.369 452.101 269.93 456.232 269.847C460.363 269.765 464.293 268.045 467.157 265.066C470.021 262.087 471.585 258.093 471.505 253.961C471.425 249.829 469.708 245.899 466.731 243.033L374.263 154.138C371.281 151.277 367.285 149.716 363.153 149.797C359.021 149.879 355.09 151.596 352.223 154.572Z" fill="#535461"/>
<path d="M186.572 205.714C150.721 215.598 111.463 223.038 97.3965 211.496C105.098 198.674 109.54 186.037 109.917 173.629C110.002 167.952 112.301 162.532 116.325 158.526C118.989 155.953 122.204 154.02 125.726 152.876C129.249 151.731 132.986 151.404 136.653 151.92L145.957 153.226C146.27 153.27 146.582 153.32 146.892 153.376C151.358 154.222 155.446 156.445 158.584 159.734C161.722 163.022 163.751 167.211 164.387 171.711C166.347 185.166 172.939 196.813 186.572 205.714Z" fill="#2F2E41"/>
<path d="M221.154 333.359L235.091 336.232C236.156 336.452 237.158 336.906 238.025 337.561C238.892 338.216 239.603 339.056 240.105 340.02C240.607 340.984 240.888 342.048 240.928 343.134C240.968 344.22 240.765 345.302 240.335 346.3C239.919 347.264 239.301 348.128 238.522 348.832C237.742 349.537 236.821 350.065 235.819 350.382C234.818 350.698 233.76 350.796 232.717 350.667C231.675 350.539 230.672 350.187 229.778 349.637L208.458 336.525L172.247 251.399L191.003 245.974L221.154 333.359Z" fill="#A0616A"/>
<path d="M121.869 445.06L111.316 448.129L103.328 431.632L111.451 427.399L121.869 445.06Z" fill="#A0616A"/>
<path d="M116.507 515.743L103.559 512.315L105.586 490.07L116.729 490.756L116.507 515.743Z" fill="#A0616A"/>
<path d="M117.857 429.639L104.143 438.664L51.399 379.003C50.2549 377.709 49.4101 376.179 48.9246 374.521C48.4391 372.863 48.3249 371.119 48.59 369.412C48.8552 367.705 49.4933 366.078 50.4588 364.646C51.4243 363.213 52.6936 362.012 54.1764 361.126L119.883 321.864L129.947 350.774L95.7331 382.881L117.857 429.639Z" fill="#2F2E41"/>
<path d="M129.406 460.868C129.372 460.913 129.338 460.958 129.303 461.002C128.427 466.134 126.887 470.815 123.45 474.204C122.43 476.502 120.6 478.345 118.309 479.38C116.017 480.415 113.425 480.57 111.027 479.814C108.765 479.102 106.821 477.626 105.527 475.639C104.233 473.652 103.669 471.277 103.933 468.92L106.496 446.015C112.643 444.602 117.331 441.106 119.704 434.305L125.678 438.374C127.446 439.569 128.952 441.111 130.104 442.907C131.257 444.703 132.031 446.715 132.38 448.82C132.728 450.924 132.645 453.078 132.134 455.15C131.622 457.222 130.694 459.167 129.406 460.868Z" fill="#2F2E41"/>
<path d="M135.907 200.809C147.565 200.809 157.015 191.359 157.015 179.702C157.015 168.044 147.565 158.594 135.907 158.594C124.25 158.594 114.8 168.044 114.8 179.702C114.8 191.359 124.25 200.809 135.907 200.809Z" fill="#A0616A"/>
<path d="M154.187 213.444L120.911 241.003L118.319 229.659L124.127 220.805C125.739 212.119 124.699 202.54 121.929 192.38L143.639 192.399C144.576 200.61 147.773 207.773 154.187 213.444Z" fill="#A0616A"/>
<path d="M163.555 285.734L118.633 299.418L115.138 283.44C106.719 272.137 103.059 261.819 108.567 253.402L105.795 240.731C113.746 234.471 119.998 228.066 123.432 221.421L151.071 210.621L171.389 211.871L177.389 231.978L163.555 285.734Z" fill="#FF4081"/>
<path d="M195.469 248.222C185.894 248.121 176.522 250.992 168.647 256.441L171.389 211.871C174.173 212.242 176.812 213.333 179.046 215.034C181.281 216.735 183.034 218.988 184.133 221.572L195.469 248.222Z" fill="#FF4081"/>
<path d="M117.717 496.08L103.458 492.571L105.557 371.418L124.703 350.451L120.418 323.871L117.644 294.094L164.412 282.497C180.22 311.2 189.775 337.296 175.828 353.597L117.717 496.08Z" fill="#2F2E41"/>
<path d="M114.442 536.985C114.378 537.011 114.314 537.035 114.25 537.06C110.109 541.868 105.561 545.788 99.8413 547.166C97.3326 548.925 94.2638 549.699 91.2208 549.34C88.1777 548.98 85.3738 547.512 83.3442 545.217C81.4301 543.052 80.3277 540.289 80.2256 537.401C80.1234 534.513 81.0278 531.679 82.7841 529.384L99.8546 507.079C107.161 509.466 114.253 508.763 121.005 503.153L124.686 511.156C125.781 513.514 126.384 516.071 126.458 518.67C126.533 521.27 126.077 523.857 125.118 526.274C124.16 528.691 122.718 530.887 120.883 532.729C119.047 534.571 116.856 536.019 114.442 536.985Z" fill="#2F2E41"/>
<path d="M62.356 347.931L49.8409 358.646C48.8024 359.535 48.0051 360.672 47.523 361.952C47.041 363.231 46.8897 364.612 47.0833 365.965C47.2768 367.319 47.8089 368.601 48.6302 369.694C49.4515 370.787 50.5355 371.655 51.7816 372.218C53.6576 373.064 55.785 373.167 57.734 372.506C59.6829 371.844 61.3078 370.467 62.2803 368.653L71.3305 351.773L112.834 276.034L97.2246 273.1L62.356 347.931Z" fill="#A0616A"/>
<path d="M115.335 278.161C107.228 275.714 99.6348 274.273 93.7456 276.175C94.9801 260.899 97.5244 247.252 105.795 240.731L117.553 242.112L115.335 278.161Z" fill="#FF4081"/>
<path d="M159.471 174.807L114.326 172.029L114.881 163C130.64 152.374 145.689 153.3 160.026 165.778L159.471 174.807Z" fill="#2F2E41"/>
</svg>
