<svg width="1080" height="2106" viewBox="0 0 1080 2106" fill="none" xmlns="http://www.w3.org/2000/svg">
<path d="M392.414 901.141H427.359V951.133C421.922 952.867 416.391 954.18 410.766 955.07C405.141 955.961 398.625 956.406 391.219 956.406C375.656 956.406 363.539 951.789 354.867 942.555C346.195 933.273 341.859 920.289 341.859 903.602C341.859 892.914 343.992 883.562 348.258 875.547C352.57 867.484 358.758 861.344 366.82 857.125C374.883 852.859 384.328 850.727 395.156 850.727C406.125 850.727 416.344 852.742 425.812 856.773L421.172 867.32C411.891 863.383 402.961 861.414 394.383 861.414C381.867 861.414 372.094 865.141 365.062 872.594C358.031 880.047 354.516 890.383 354.516 903.602C354.516 917.477 357.891 928 364.641 935.172C371.438 942.344 381.398 945.93 394.523 945.93C401.648 945.93 408.609 945.109 415.406 943.469V911.828H392.414V901.141ZM477.82 955L476.273 947.688H475.898C473.336 950.906 470.773 953.094 468.211 954.25C465.68 955.375 462.508 955.938 458.695 955.938C453.602 955.938 449.602 954.625 446.695 952C443.82 949.375 442.383 945.641 442.383 940.797C442.383 930.422 450.68 924.984 467.273 924.484L475.992 924.203V921.016C475.992 916.984 475.117 914.016 473.367 912.109C471.648 910.172 468.883 909.203 465.07 909.203C460.789 909.203 455.945 910.516 450.539 913.141L448.148 907.188C450.68 905.812 453.445 904.734 456.445 903.953C459.477 903.172 462.508 902.781 465.539 902.781C471.664 902.781 476.195 904.141 479.133 906.859C482.102 909.578 483.586 913.938 483.586 919.938V955H477.82ZM460.242 949.516C465.086 949.516 468.883 948.188 471.633 945.531C474.414 942.875 475.805 939.156 475.805 934.375V929.734L468.023 930.062C461.836 930.281 457.367 931.25 454.617 932.969C451.898 934.656 450.539 937.297 450.539 940.891C450.539 943.703 451.383 945.844 453.07 947.312C454.789 948.781 457.18 949.516 460.242 949.516ZM565.148 955V921.578C565.148 917.484 564.273 914.422 562.523 912.391C560.773 910.328 558.055 909.297 554.367 909.297C549.523 909.297 545.945 910.688 543.633 913.469C541.32 916.25 540.164 920.531 540.164 926.312V955H532.383V921.578C532.383 917.484 531.508 914.422 529.758 912.391C528.008 910.328 525.273 909.297 521.555 909.297C516.68 909.297 513.102 910.766 510.82 913.703C508.57 916.609 507.445 921.391 507.445 928.047V955H499.664V903.625H505.992L507.258 910.656H507.633C509.102 908.156 511.164 906.203 513.82 904.797C516.508 903.391 519.508 902.688 522.82 902.688C530.852 902.688 536.102 905.594 538.57 911.406H538.945C540.477 908.719 542.695 906.594 545.602 905.031C548.508 903.469 551.82 902.688 555.539 902.688C561.352 902.688 565.695 904.188 568.57 907.188C571.477 910.156 572.93 914.922 572.93 921.484V955H565.148Z" fill="white"/>
<path d="M682.125 955H611.461V945.648L666.023 862.961H613.148V852.203H680.578V861.555L626.016 944.172H682.125V955ZM703.523 903.625V936.953C703.523 941.141 704.477 944.266 706.383 946.328C708.289 948.391 711.273 949.422 715.336 949.422C720.711 949.422 724.633 947.953 727.102 945.016C729.602 942.078 730.852 937.281 730.852 930.625V903.625H738.633V955H732.211L731.086 948.109H730.664C729.07 950.641 726.852 952.578 724.008 953.922C721.195 955.266 717.977 955.938 714.352 955.938C708.102 955.938 703.414 954.453 700.289 951.484C697.195 948.516 695.648 943.766 695.648 937.234V903.625H703.523Z" fill="#FF4081"/>
<ellipse cx="875.5" cy="764.5" rx="74.5" ry="77.5" fill="#FF4081" fill-opacity="0.28"/>
<path d="M928 764C928 792.719 904.495 816 875.5 816C846.505 816 823 792.719 823 764C823 735.281 846.505 712 875.5 712C904.495 712 928 735.281 928 764Z" fill="#FF4081"/>
<ellipse cx="747" cy="642.5" rx="45" ry="44.5" fill="#FF4081" fill-opacity="0.28"/>
<path d="M779 642C779 658.569 764.673 672 747 672C729.327 672 715 658.569 715 642C715 625.431 729.327 612 747 612C764.673 612 779 625.431 779 642Z" fill="#FF4081"/>
<ellipse cx="212.5" cy="1137.5" rx="120.5" ry="117.5" fill="#FF4081" fill-opacity="0.28"/>
<path d="M298 1137C298 1180.63 259.944 1216 213 1216C166.056 1216 128 1180.63 128 1137C128 1093.37 166.056 1058 213 1058C259.944 1058 298 1093.37 298 1137Z" fill="#FF4081"/>
<path d="M927.19 1666.24C942.077 1682.2 958.685 1684.74 977.015 1673.88C969.323 1661.28 967.492 1647.58 969.541 1633.14H933.834C935.416 1645.83 934.99 1657.64 927.19 1666.24Z" fill="#FFB8B8"/>
<path d="M986.149 2083.78L1005.25 2073.6L1013.55 1965.82V1908.96L969.541 1908.11L981.997 1964.97L986.149 2083.78Z" fill="#FFB8B8"/>
<path d="M930.785 2083.78L911.686 2073.6L903.383 1965.82V1908.96L947.394 1908.11L934.938 1964.97L930.785 2083.78Z" fill="#FFB8B8"/>
<path d="M901.448 1920.84L947.951 1916.59L955.424 1873.31L964.559 1915.75L1015.21 1912.35C1016.32 1891.73 1013.51 1870.51 1006.91 1848.7L895.635 1846.16L901.448 1920.84Z" fill="#2F2E41"/>
<path d="M853.113 1758.29L797.175 1714.27C796.594 1713.81 795.956 1713.44 795.277 1713.16L787.147 1709.78C780.617 1707.06 768.178 1698.03 774.245 1688.73C779.136 1681.23 797.857 1694.67 800.16 1699.64C800.888 1701.21 802.082 1702.5 803.571 1703.33L814.938 1709.69C815.215 1709.85 815.5 1709.99 815.792 1710.11L859.072 1728.04C860.272 1728.53 861.57 1728.73 862.859 1728.61C864.148 1728.49 865.391 1728.06 866.485 1727.35L874.331 1722.27C875.448 1721.54 876.72 1721.11 878.038 1721C879.355 1720.89 880.679 1721.12 881.894 1721.65C883.109 1722.18 884.179 1723.01 885.011 1724.06C885.843 1725.11 886.412 1726.35 886.669 1727.67L889.262 1741.05C889.635 1742.98 889.33 1744.97 888.399 1746.69C887.469 1748.41 885.974 1749.74 884.179 1750.44L860.975 1759.47C859.675 1759.98 858.269 1760.14 856.893 1759.93C855.517 1759.72 854.215 1759.16 853.113 1758.29Z" fill="#FFB8B8"/>
<path d="M863.504 1726.22C878.991 1721.97 877.365 1744.09 889.181 1754.96L912.413 1736.22L898.957 1669.64C895.346 1670.69 892.025 1672.59 889.256 1675.18C886.487 1677.77 884.346 1680.98 883.001 1684.57L863.504 1726.22Z" fill="#FF4081"/>
<path d="M892.313 1850.4H1009.4C990.451 1798.21 992.296 1744.54 1008.43 1689.84C1008.7 1688.93 1008.65 1687.96 1008.3 1687.08C1007.94 1686.21 1007.29 1685.48 1006.47 1685.04L972.863 1667.09C959.67 1675.86 945.492 1673.17 930.512 1661.15L893.974 1671.33C903.92 1732.38 904.203 1792.18 892.313 1850.4Z" fill="#FF4081"/>
<path d="M921.59 2103.71L872.795 2105.83C870.671 2105.92 868.588 2105.2 866.948 2103.82C865.307 2102.44 864.226 2100.48 863.911 2098.33C863.593 2096.16 864.081 2093.95 865.277 2092.13C866.474 2090.3 868.294 2089 870.38 2088.48L878.656 2086.41L911.185 2067.14C916.004 2072.24 922.641 2076.55 930.753 2080.22L930.848 2093.77C930.866 2096.33 929.911 2098.8 928.184 2100.65C926.457 2102.51 924.093 2103.6 921.59 2103.71Z" fill="#2F2E41"/>
<path d="M1079.52 2106H0.392578V2103.27H1080L1079.52 2106Z" fill="#3F3D56"/>
<path d="M994.939 2102.95L1043.73 2105.07C1045.86 2105.16 1047.94 2104.45 1049.58 2103.06C1051.22 2101.68 1052.3 2099.72 1052.62 2097.58C1052.94 2095.4 1052.45 2093.19 1051.25 2091.37C1050.06 2089.55 1048.24 2088.25 1046.15 2087.72L1037.87 2085.65L1005.34 2066.38C1000.53 2071.48 993.889 2075.79 985.776 2079.47L985.681 2093.01C985.663 2095.57 986.619 2098.04 988.346 2099.89C990.073 2101.75 992.436 2102.85 994.939 2102.95Z" fill="#2F2E41"/>
<path d="M947.951 1648.42C962.627 1648.42 974.524 1636.26 974.524 1621.26C974.524 1606.26 962.627 1594.11 947.951 1594.11C933.275 1594.11 921.377 1606.26 921.377 1621.26C921.377 1636.26 933.275 1648.42 947.951 1648.42Z" fill="#FFB8B8"/>
<path d="M989.471 1841.91L980.692 1859.36C979.918 1860.9 979.47 1862.59 979.38 1864.32C979.29 1866.04 979.559 1867.77 980.169 1869.39C980.779 1871 981.717 1872.47 982.921 1873.69C984.124 1874.9 985.566 1875.85 987.153 1876.46C988.831 1877.1 990.63 1877.35 992.416 1877.19C994.202 1877.03 995.93 1876.46 997.473 1875.53C999.017 1874.6 1000.34 1873.33 1001.34 1871.8C1002.33 1870.28 1002.99 1868.55 1003.25 1866.74L1006.91 1841.06L1020.2 1776.57L1019.37 1744.32H992.793C1001.86 1768.3 997.36 1803.68 989.471 1841.91Z" fill="#FFB8B8"/>
<path d="M988.641 1747.71H1024.35L1019.17 1707.69C1018.46 1702.26 1016.44 1697.1 1013.28 1692.68C1010.13 1688.26 1005.94 1684.71 1001.1 1682.37L988.641 1747.71Z" fill="#FF4081"/>
<path d="M976.202 1606.3C976.733 1602.68 976.51 1598.98 975.547 1595.44C974.585 1591.91 972.905 1588.62 970.616 1585.79C966.083 1580.31 958.483 1575.82 945.875 1577.94C918.367 1582.56 910.435 1605.96 913.13 1611.85C915.825 1617.73 924.086 1631.38 924.086 1631.38C924.086 1631.38 918.023 1617.87 924.603 1615.12C931.183 1612.37 956.647 1601.54 965.535 1606.42C968.051 1607.71 970.187 1609.66 971.726 1612.07C973.265 1614.48 974.152 1617.27 974.296 1620.14L976.202 1606.3Z" fill="#2F2E41"/>
<path d="M420.898 1733.38V1724.36C420.898 1724.36 459.435 1702.2 490.746 1724.36V1732.56L420.898 1733.38Z" fill="#535461"/>
<path d="M771.742 1733.38V1724.36C771.742 1724.36 810.278 1702.2 841.589 1724.36V1732.56L771.742 1733.38Z" fill="#535461"/>
<path d="M536.508 1732.56H498.774C498.774 1732.56 489.14 1721.07 457.026 1721.9C424.912 1722.72 418.489 1732.56 418.489 1732.56C418.489 1732.56 386.777 1754.3 379.551 1781.38C379.551 1781.38 340.613 1900.76 339.81 1994.3C339.007 2087.83 374.333 2100.96 392.798 2103.42C411.264 2105.88 444.18 2102.6 476.294 2019.73L489.943 1971.32C489.943 1971.32 492.351 1942.61 521.254 1960.66C550.156 1978.71 575.847 1950.81 575.847 1950.81H684.231C684.231 1950.81 720.359 1973.78 753.276 1955.73C753.276 1955.73 766.122 1938.5 778.164 1996.76C778.164 1996.76 815.095 2116.55 872.097 2104.24C929.099 2091.93 922.676 1991.83 922.676 1991.83C922.676 1991.83 915.049 1838.81 883.738 1784.66C883.738 1784.66 853.632 1728.46 833.561 1726C833.561 1726 790.207 1717.79 773.347 1725.18L763.713 1733.38L536.508 1732.56Z" fill="#E6E6E6"/>
<path d="M448.997 1884.35C487.573 1884.35 518.845 1852.39 518.845 1812.97C518.845 1773.55 487.573 1741.59 448.997 1741.59C410.422 1741.59 379.15 1773.55 379.15 1812.97C379.15 1852.39 410.422 1884.35 448.997 1884.35Z" fill="#535461"/>
<path d="M813.49 1884.35C852.065 1884.35 883.337 1852.39 883.337 1812.97C883.337 1773.55 852.065 1741.59 813.49 1741.59C774.914 1741.59 743.642 1773.55 743.642 1812.97C743.642 1852.39 774.914 1884.35 813.49 1884.35Z" fill="#535461"/>
<path d="M461.169 1797.05L451.856 1805.47C451.067 1806.18 450.053 1806.57 449.002 1806.57C447.951 1806.57 446.936 1806.18 446.148 1805.47L436.819 1797.05C436.362 1796.64 435.996 1796.14 435.745 1795.57C435.493 1795.01 435.361 1794.39 435.357 1793.77V1770.61C435.36 1769.44 435.816 1768.32 436.625 1767.49C437.435 1766.67 438.533 1766.2 439.677 1766.2H458.343C459.486 1766.2 460.584 1766.66 461.394 1767.49C462.204 1768.31 462.66 1769.43 462.662 1770.6V1793.75C462.657 1794.38 462.521 1795 462.264 1795.57C462.006 1796.14 461.633 1796.64 461.169 1797.05Z" fill="#E6E6E6"/>
<path d="M461.169 1828.88L451.856 1820.47C451.067 1819.76 450.053 1819.37 449.002 1819.37C447.951 1819.37 446.936 1819.76 446.148 1820.47L436.819 1828.89C436.362 1829.3 435.996 1829.8 435.745 1830.37C435.493 1830.93 435.361 1831.55 435.357 1832.17V1855.31C435.355 1856.47 435.808 1857.6 436.615 1858.42C437.422 1859.25 438.517 1859.72 439.661 1859.72H458.343C459.486 1859.72 460.584 1859.26 461.394 1858.44C462.204 1857.61 462.66 1856.49 462.662 1855.32V1832.18C462.657 1831.55 462.521 1830.93 462.264 1830.36C462.006 1829.79 461.633 1829.29 461.169 1828.88Z" fill="#E6E6E6"/>
<path d="M433.431 1825.42L441.668 1815.89C442.362 1815.08 442.745 1814.05 442.745 1812.97C442.745 1811.9 442.362 1810.86 441.668 1810.06L433.431 1800.52C433.028 1800.06 432.534 1799.68 431.981 1799.43C431.427 1799.17 430.827 1799.03 430.219 1799.03H407.579C406.435 1799.03 405.338 1799.5 404.53 1800.33C403.722 1801.15 403.268 1802.27 403.268 1803.44V1822.52C403.265 1823.69 403.718 1824.81 404.525 1825.64C405.332 1826.47 406.427 1826.93 407.571 1826.93H430.227C430.835 1826.93 431.435 1826.79 431.987 1826.53C432.539 1826.27 433.031 1825.89 433.431 1825.42Z" fill="#E6E6E6"/>
<path d="M464.573 1825.42L456.352 1815.88C455.656 1815.08 455.272 1814.04 455.272 1812.97C455.272 1811.89 455.656 1810.85 456.352 1810.05L464.589 1800.51C464.991 1800.05 465.485 1799.67 466.039 1799.42C466.592 1799.16 467.192 1799.02 467.801 1799.02H490.441C491.584 1799.02 492.682 1799.48 493.492 1800.31C494.302 1801.13 494.758 1802.25 494.76 1803.42V1822.51C494.762 1823.68 494.31 1824.8 493.503 1825.63C492.696 1826.46 491.6 1826.92 490.457 1826.93H467.809C467.196 1826.92 466.59 1826.79 466.032 1826.53C465.474 1826.27 464.977 1825.9 464.573 1825.42Z" fill="#E6E6E6"/>
<path d="M543.734 1942.61C571.668 1942.61 594.313 1919.46 594.313 1890.92C594.313 1862.37 571.668 1839.22 543.734 1839.22C515.799 1839.22 493.154 1862.37 493.154 1890.92C493.154 1919.46 515.799 1942.61 543.734 1942.61Z" fill="#535461"/>
<path d="M718.754 1942.61C746.688 1942.61 769.333 1919.46 769.333 1890.92C769.333 1862.37 746.688 1839.22 718.754 1839.22C690.819 1839.22 668.174 1862.37 668.174 1890.92C668.174 1919.46 690.819 1942.61 718.754 1942.61Z" fill="#535461"/>
<path d="M543.733 1925.38C562.356 1925.38 577.453 1909.95 577.453 1890.92C577.453 1871.88 562.356 1856.45 543.733 1856.45C525.11 1856.45 510.014 1871.88 510.014 1890.92C510.014 1909.95 525.11 1925.38 543.733 1925.38Z" fill="#E6E6E6"/>
<path d="M543.734 1914.71C539.129 1914.71 534.627 1913.31 530.799 1910.7C526.97 1908.08 523.986 1904.37 522.223 1900.02C520.461 1895.67 520 1890.89 520.899 1886.27C521.797 1881.66 524.014 1877.42 527.27 1874.09C530.527 1870.76 534.675 1868.5 539.192 1867.58C543.708 1866.66 548.389 1867.13 552.644 1868.93C556.898 1870.73 560.534 1873.78 563.092 1877.7C565.651 1881.61 567.016 1886.21 567.016 1890.92C567.009 1897.22 564.554 1903.27 560.189 1907.73C555.824 1912.19 549.907 1914.7 543.734 1914.71ZM543.734 1868.76C539.446 1868.76 535.256 1870.06 531.691 1872.5C528.126 1874.93 525.348 1878.39 523.707 1882.44C522.066 1886.49 521.637 1890.94 522.473 1895.24C523.31 1899.53 525.374 1903.48 528.406 1906.58C531.437 1909.68 535.3 1911.79 539.505 1912.64C543.71 1913.5 548.068 1913.06 552.029 1911.38C555.99 1909.71 559.376 1906.87 561.757 1903.22C564.139 1899.58 565.411 1895.3 565.411 1890.92C565.404 1885.04 563.118 1879.41 559.054 1875.26C554.991 1871.1 549.481 1868.77 543.734 1868.76Z" fill="#535461"/>
<path d="M718.754 1925.38C737.376 1925.38 752.473 1909.95 752.473 1890.92C752.473 1871.88 737.376 1856.45 718.754 1856.45C700.131 1856.45 685.034 1871.88 685.034 1890.92C685.034 1909.95 700.131 1925.38 718.754 1925.38Z" fill="#E6E6E6"/>
<path d="M718.754 1914.71C714.149 1914.71 709.647 1913.31 705.819 1910.7C701.99 1908.08 699.006 1904.37 697.243 1900.02C695.481 1895.67 695.02 1890.89 695.919 1886.27C696.817 1881.66 699.034 1877.42 702.291 1874.09C705.547 1870.76 709.695 1868.5 714.212 1867.58C718.728 1866.66 723.409 1867.13 727.664 1868.93C731.918 1870.73 735.554 1873.78 738.113 1877.7C740.671 1881.61 742.036 1886.21 742.036 1890.92C742.029 1897.22 739.574 1903.27 735.209 1907.73C730.844 1912.19 724.926 1914.7 718.754 1914.71ZM718.754 1868.76C714.466 1868.76 710.275 1870.06 706.711 1872.5C703.146 1874.93 700.368 1878.39 698.727 1882.44C697.086 1886.49 696.657 1890.94 697.493 1895.24C698.33 1899.53 700.394 1903.48 703.426 1906.58C706.457 1909.68 710.32 1911.79 714.525 1912.64C718.73 1913.5 723.088 1913.06 727.049 1911.38C731.01 1909.71 734.396 1906.87 736.777 1903.22C739.159 1899.58 740.431 1895.3 740.431 1890.92C740.424 1885.04 738.138 1879.41 734.074 1875.26C730.011 1871.1 724.501 1868.77 718.754 1868.76Z" fill="#535461"/>
<path d="M632.849 1911.43C640.83 1911.43 647.3 1904.82 647.3 1896.66C647.3 1888.5 640.83 1881.89 632.849 1881.89C624.868 1881.89 618.398 1888.5 618.398 1896.66C618.398 1904.82 624.868 1911.43 632.849 1911.43Z" fill="#535461"/>
<path d="M610.763 1850.59C612.506 1850.59 613.918 1849.14 613.918 1847.36C613.918 1845.58 612.506 1844.14 610.763 1844.14C609.021 1844.14 607.608 1845.58 607.608 1847.36C607.608 1849.14 609.021 1850.59 610.763 1850.59Z" fill="#535461"/>
<path d="M622.581 1850.59C624.323 1850.59 625.736 1849.14 625.736 1847.36C625.736 1845.58 624.323 1844.14 622.581 1844.14C620.838 1844.14 619.426 1845.58 619.426 1847.36C619.426 1849.14 620.838 1850.59 622.581 1850.59Z" fill="#535461"/>
<path d="M621.007 1865.89C622.75 1865.89 624.162 1864.45 624.162 1862.67C624.162 1860.89 622.75 1859.44 621.007 1859.44C619.265 1859.44 617.852 1860.89 617.852 1862.67C617.852 1864.45 619.265 1865.89 621.007 1865.89Z" fill="#535461"/>
<path d="M632.046 1866.3C633.82 1866.3 635.258 1864.83 635.258 1863.02C635.258 1861.21 633.82 1859.74 632.046 1859.74C630.273 1859.74 628.835 1861.21 628.835 1863.02C628.835 1864.83 630.273 1866.3 632.046 1866.3Z" fill="#535461"/>
<path d="M643.069 1865.89C644.812 1865.89 646.224 1864.45 646.224 1862.67C646.224 1860.89 644.812 1859.44 643.069 1859.44C641.327 1859.44 639.914 1860.89 639.914 1862.67C639.914 1864.45 641.327 1865.89 643.069 1865.89Z" fill="#535461"/>
<path d="M616.279 1858.65C618.021 1858.65 619.434 1857.2 619.434 1855.42C619.434 1853.64 618.021 1852.2 616.279 1852.2C614.536 1852.2 613.124 1853.64 613.124 1855.42C613.124 1857.2 614.536 1858.65 616.279 1858.65Z" fill="#535461"/>
<path d="M626.427 1858.92C628.2 1858.92 629.638 1857.45 629.638 1855.63C629.638 1853.82 628.2 1852.35 626.427 1852.35C624.653 1852.35 623.215 1853.82 623.215 1855.63C623.215 1857.45 624.653 1858.92 626.427 1858.92Z" fill="#535461"/>
<path d="M636.864 1858.92C638.637 1858.92 640.075 1857.45 640.075 1855.63C640.075 1853.82 638.637 1852.35 636.864 1852.35C635.09 1852.35 633.652 1853.82 633.652 1855.63C633.652 1857.45 635.09 1858.92 636.864 1858.92Z" fill="#535461"/>
<path d="M647.798 1858.65C649.541 1858.65 650.953 1857.2 650.953 1855.42C650.953 1853.64 649.541 1852.2 647.798 1852.2C646.056 1852.2 644.643 1853.64 644.643 1855.42C644.643 1857.2 646.056 1858.65 647.798 1858.65Z" fill="#535461"/>
<path d="M632.046 1850.71C633.82 1850.71 635.258 1849.24 635.258 1847.43C635.258 1845.62 633.82 1844.15 632.046 1844.15C630.273 1844.15 628.835 1845.62 628.835 1847.43C628.835 1849.24 630.273 1850.71 632.046 1850.71Z" fill="#535461"/>
<path d="M643.287 1850.71C645.06 1850.71 646.498 1849.24 646.498 1847.43C646.498 1845.62 645.06 1844.15 643.287 1844.15C641.513 1844.15 640.075 1845.62 640.075 1847.43C640.075 1849.24 641.513 1850.71 643.287 1850.71Z" fill="#535461"/>
<path d="M652.527 1850.59C654.27 1850.59 655.682 1849.14 655.682 1847.36C655.682 1845.58 654.27 1844.14 652.527 1844.14C650.785 1844.14 649.372 1845.58 649.372 1847.36C649.372 1849.14 650.785 1850.59 652.527 1850.59Z" fill="#535461"/>
<path d="M512.824 1739.55C511.338 1739.56 509.915 1740.16 508.865 1741.23C507.815 1742.31 507.224 1743.76 507.222 1745.28V1762.51C507.224 1764.03 507.815 1765.48 508.865 1766.56C509.915 1767.63 511.338 1768.23 512.824 1768.23H516.838C518.323 1768.23 519.747 1767.63 520.797 1766.56C521.847 1765.48 522.438 1764.03 522.439 1762.51V1745.28C522.438 1743.76 521.847 1742.31 520.797 1741.23C519.747 1740.16 518.323 1739.56 516.838 1739.55H512.824Z" fill="#535461"/>
<path d="M747.255 1739.55C745.77 1739.56 744.346 1740.16 743.296 1741.23C742.245 1742.31 741.655 1743.76 741.653 1745.28V1762.51C741.655 1764.03 742.245 1765.48 743.296 1766.56C744.346 1767.63 745.77 1768.23 747.255 1768.23H751.269C752.754 1768.23 754.178 1767.63 755.228 1766.56C756.278 1765.48 756.869 1764.03 756.87 1762.51V1745.28C756.869 1743.76 756.278 1742.31 755.228 1741.23C754.178 1740.16 752.754 1739.56 751.269 1739.55H747.255Z" fill="#535461"/>
<path d="M814.293 1789.18C824.934 1789.18 833.561 1780.36 833.561 1769.48C833.561 1758.61 824.934 1749.79 814.293 1749.79C803.651 1749.79 795.024 1758.61 795.024 1769.48C795.024 1780.36 803.651 1789.18 814.293 1789.18Z" fill="#E6E6E6"/>
<path d="M773.347 1831.02C783.989 1831.02 792.616 1822.2 792.616 1811.33C792.616 1800.45 783.989 1791.64 773.347 1791.64C762.706 1791.64 754.079 1800.45 754.079 1811.33C754.079 1822.2 762.706 1831.02 773.347 1831.02Z" fill="#E6E6E6"/>
<path d="M856.844 1828.56C867.485 1828.56 876.112 1819.74 876.112 1808.87C876.112 1797.99 867.485 1789.18 856.844 1789.18C846.202 1789.18 837.575 1797.99 837.575 1808.87C837.575 1819.74 846.202 1828.56 856.844 1828.56Z" fill="#E6E6E6"/>
<path d="M817.504 1872.04C828.145 1872.04 836.772 1863.23 836.772 1852.35C836.772 1841.48 828.145 1832.66 817.504 1832.66C806.862 1832.66 798.235 1841.48 798.235 1852.35C798.235 1863.23 806.862 1872.04 817.504 1872.04Z" fill="#E6E6E6"/>
<path d="M549.152 1728.07C544.847 1728.07 540.719 1729.82 537.675 1732.93C534.63 1736.05 532.918 1740.26 532.913 1744.66V1818.1C532.918 1822.5 534.63 1826.72 537.675 1829.83C540.719 1832.94 544.847 1834.69 549.152 1834.69H714.137C718.442 1834.69 722.57 1832.94 725.614 1829.83C728.659 1826.72 730.371 1822.5 730.376 1818.1V1744.66C730.371 1740.26 728.659 1736.05 725.614 1732.93C722.57 1729.82 718.442 1728.07 714.137 1728.07H549.152Z" fill="#535461"/>
<path d="M827.383 1778.51H801.253L813.868 1756.41L827.383 1778.51ZM804.049 1776.87H824.485L813.915 1759.58L804.049 1776.87Z" fill="#535461"/>
<path d="M784.186 1821.17H762.509V1801.48H784.186V1821.17ZM764.115 1819.53H782.58V1803.12H764.115V1819.53Z" fill="#535461"/>
<path d="M856.843 1821.17C854.462 1821.17 852.133 1820.45 850.153 1819.1C848.173 1817.75 846.629 1815.83 845.717 1813.58C844.806 1811.33 844.568 1808.85 845.032 1806.47C845.497 1804.08 846.644 1801.89 848.328 1800.16C850.012 1798.44 852.158 1797.27 854.494 1796.8C856.83 1796.32 859.251 1796.56 861.452 1797.5C863.652 1798.43 865.533 1800.01 866.856 1802.03C868.18 1804.05 868.886 1806.43 868.886 1808.87C868.883 1812.13 867.613 1815.26 865.355 1817.57C863.097 1819.87 860.036 1821.17 856.843 1821.17ZM856.843 1798.2C854.779 1798.2 852.761 1798.83 851.045 1800C849.329 1801.17 847.991 1802.84 847.201 1804.78C846.411 1806.73 846.204 1808.88 846.607 1810.95C847.01 1813.02 848.004 1814.92 849.463 1816.41C850.923 1817.9 852.783 1818.92 854.807 1819.33C856.832 1819.74 858.93 1819.53 860.838 1818.72C862.745 1817.91 864.375 1816.55 865.521 1814.79C866.668 1813.04 867.28 1810.98 867.28 1808.87C867.277 1806.04 866.177 1803.33 864.22 1801.33C862.263 1799.33 859.611 1798.2 856.843 1798.2Z" fill="#535461"/>
<path d="M808.839 1842.54L807.704 1843.7L825.768 1862.16L826.903 1861L808.839 1842.54Z" fill="#535461"/>
<path d="M826.181 1842.53L807.717 1860.58L808.827 1861.77L827.291 1843.71L826.181 1842.53Z" fill="#535461"/>
<path d="M473.409 113.863L464.671 118.297C454.607 98.4789 441.273 80.4999 425.231 65.1152C346.45 -10.6227 220.739 -8.14654 145.001 70.635C69.2632 149.417 71.7394 275.127 150.521 350.865C165.515 365.309 182.693 377.298 201.422 386.392L197.148 395.208C167.462 380.794 141.631 359.523 121.791 333.152C101.951 306.781 88.6711 276.068 83.0475 243.551C77.424 211.033 79.6188 177.644 89.4505 146.142C99.2822 114.64 116.469 85.9293 139.59 62.3827C162.711 38.836 191.103 21.129 222.421 10.7246C253.738 0.320169 287.082 -2.48297 319.697 2.54676C352.312 7.5765 383.262 20.2947 409.99 39.6506C436.718 59.0066 458.456 84.4445 473.409 113.863Z" fill="#E6E6E6"/>
<path d="M177.792 296.15C164.94 309.519 157.925 327.446 158.29 345.987C158.655 364.528 166.371 382.165 179.74 395.018C193.109 407.87 211.036 414.885 229.577 414.52C248.118 414.155 265.755 406.439 278.608 393.07L290.645 380.549L189.83 283.628L177.792 296.15Z" fill="#E6E6E6"/>
<path d="M183.075 276.517C180.215 279.499 178.654 283.495 178.735 287.627C178.816 291.759 180.533 295.69 183.509 298.557L275.977 387.452C278.957 390.317 282.954 391.881 287.087 391.8C291.22 391.719 295.152 389.998 298.017 387.018C300.882 384.038 302.446 380.041 302.365 375.908C302.284 371.775 300.564 367.843 297.583 364.978L205.116 276.083C202.133 273.222 198.138 271.661 194.006 271.742C189.874 271.824 185.943 273.541 183.075 276.517Z" fill="#535461"/>
<path d="M460.41 203.962L472.448 191.44C485.3 178.071 492.315 160.144 491.95 141.603C491.585 123.062 483.869 105.425 470.5 92.5723C463.881 86.2085 456.072 81.2107 447.521 77.8645C438.97 74.5183 429.844 72.8891 420.663 73.0699C402.122 73.4351 384.485 81.1509 371.633 94.5198L359.595 107.041L460.41 203.962Z" fill="#E6E6E6"/>
<path d="M352.223 100.572C349.362 103.554 347.801 107.55 347.882 111.682C347.964 115.814 349.681 119.745 352.657 122.612L445.124 211.507C448.105 214.369 452.101 215.93 456.232 215.847C460.363 215.765 464.293 214.045 467.157 211.066C470.021 208.087 471.585 204.093 471.505 199.961C471.425 195.829 469.708 191.899 466.731 189.033L374.263 100.138C371.281 97.2769 367.285 95.716 363.153 95.7974C359.021 95.8788 355.09 97.5959 352.223 100.572Z" fill="#535461"/>
<path d="M186.572 151.714C150.721 161.598 111.463 169.038 97.3965 157.496C105.098 144.674 109.54 132.037 109.917 119.629C110.002 113.952 112.301 108.532 116.325 104.526C118.989 101.953 122.204 100.02 125.726 98.8758C129.249 97.7312 132.986 97.4045 136.653 97.9205L145.957 99.2261C146.27 99.2701 146.582 99.3199 146.892 99.3758C151.358 100.222 155.446 102.445 158.584 105.734C161.722 109.022 163.751 113.211 164.387 117.711C166.347 131.166 172.939 142.813 186.572 151.714Z" fill="#2F2E41"/>
<path d="M221.154 279.359L235.091 282.232C236.156 282.452 237.158 282.906 238.025 283.561C238.892 284.216 239.603 285.056 240.105 286.02C240.607 286.984 240.888 288.048 240.928 289.134C240.968 290.22 240.765 291.302 240.335 292.3C239.919 293.264 239.301 294.128 238.522 294.832C237.742 295.537 236.821 296.065 235.819 296.382C234.818 296.698 233.76 296.796 232.717 296.667C231.675 296.539 230.672 296.187 229.778 295.637L208.458 282.525L172.247 197.399L191.003 191.974L221.154 279.359Z" fill="#A0616A"/>
<path d="M121.869 391.06L111.316 394.129L103.328 377.632L111.451 373.399L121.869 391.06Z" fill="#A0616A"/>
<path d="M116.507 461.743L103.559 458.315L105.586 436.07L116.729 436.756L116.507 461.743Z" fill="#A0616A"/>
<path d="M117.857 375.639L104.143 384.664L51.399 325.003C50.2549 323.709 49.4101 322.179 48.9246 320.521C48.4391 318.863 48.3249 317.119 48.59 315.412C48.8552 313.705 49.4933 312.078 50.4588 310.646C51.4243 309.213 52.6936 308.012 54.1764 307.126L119.883 267.864L129.947 296.774L95.7331 328.881L117.857 375.639Z" fill="#2F2E41"/>
<path d="M129.406 406.868C129.372 406.913 129.338 406.958 129.303 407.002C128.427 412.134 126.887 416.815 123.45 420.204C122.43 422.502 120.6 424.345 118.309 425.38C116.017 426.415 113.425 426.57 111.027 425.814C108.765 425.102 106.821 423.626 105.527 421.639C104.233 419.652 103.669 417.277 103.933 414.92L106.496 392.015C112.643 390.602 117.331 387.106 119.704 380.305L125.678 384.374C127.446 385.569 128.952 387.111 130.104 388.907C131.257 390.703 132.031 392.715 132.38 394.82C132.728 396.924 132.645 399.078 132.134 401.15C131.622 403.222 130.694 405.167 129.406 406.868Z" fill="#2F2E41"/>
<path d="M135.907 146.809C147.565 146.809 157.015 137.359 157.015 125.702C157.015 114.044 147.565 104.594 135.907 104.594C124.25 104.594 114.8 114.044 114.8 125.702C114.8 137.359 124.25 146.809 135.907 146.809Z" fill="#A0616A"/>
<path d="M154.187 159.444L120.911 187.003L118.319 175.659L124.127 166.805C125.739 158.119 124.699 148.54 121.929 138.38L143.639 138.399C144.576 146.61 147.773 153.773 154.187 159.444Z" fill="#A0616A"/>
<path d="M163.555 231.734L118.633 245.418L115.138 229.44C106.719 218.137 103.059 207.819 108.567 199.402L105.795 186.731C113.746 180.471 119.998 174.066 123.432 167.421L151.071 156.621L171.389 157.871L177.389 177.978L163.555 231.734Z" fill="#FF4081"/>
<path d="M195.469 194.222C185.894 194.121 176.522 196.992 168.647 202.441L171.389 157.871C174.173 158.242 176.812 159.333 179.046 161.034C181.281 162.735 183.034 164.988 184.133 167.572L195.469 194.222Z" fill="#FF4081"/>
<path d="M117.717 442.08L103.458 438.571L105.557 317.418L124.703 296.451L120.418 269.871L117.644 240.094L164.412 228.497C180.22 257.2 189.775 283.296 175.828 299.597L117.717 442.08Z" fill="#2F2E41"/>
<path d="M114.442 482.985C114.378 483.011 114.314 483.035 114.25 483.06C110.109 487.868 105.561 491.788 99.8413 493.166C97.3326 494.925 94.2638 495.699 91.2208 495.34C88.1777 494.98 85.3738 493.512 83.3442 491.217C81.4301 489.052 80.3277 486.289 80.2256 483.401C80.1234 480.513 81.0278 477.679 82.7841 475.384L99.8546 453.079C107.161 455.466 114.253 454.763 121.005 449.153L124.686 457.156C125.781 459.514 126.384 462.071 126.458 464.67C126.533 467.27 126.077 469.857 125.118 472.274C124.16 474.691 122.718 476.887 120.883 478.729C119.047 480.571 116.856 482.019 114.442 482.985Z" fill="#2F2E41"/>
<path d="M62.356 293.931L49.8409 304.646C48.8024 305.535 48.0051 306.672 47.523 307.952C47.041 309.231 46.8897 310.612 47.0833 311.965C47.2768 313.319 47.8089 314.601 48.6302 315.694C49.4515 316.787 50.5355 317.655 51.7816 318.218C53.6576 319.064 55.785 319.167 57.734 318.506C59.6829 317.844 61.3078 316.467 62.2803 314.653L71.3305 297.773L112.834 222.034L97.2246 219.1L62.356 293.931Z" fill="#A0616A"/>
<path d="M115.335 224.161C107.228 221.714 99.6348 220.273 93.7456 222.175C94.9801 206.899 97.5244 193.252 105.795 186.731L117.553 188.112L115.335 224.161Z" fill="#FF4081"/>
<path d="M159.471 120.807L114.326 118.029L114.881 109C130.64 98.3742 145.689 99.3002 160.026 111.778L159.471 120.807Z" fill="#2F2E41"/>
</svg>
